<svg width="160" height="160" viewBox="0 0 160 160" fill="none" xmlns="http://www.w3.org/2000/svg">
<path d="M14.718 42.3094L80 4.6188L145.282 42.3094V117.691L80 155.381L14.718 117.691V42.3094Z" fill="#160F31" stroke="#B0105E" stroke-width="8"/>
<path d="M82.7109 79.7734L76.6328 87.5234L73.4219 83.4297C73.3634 83.355 73.2887 83.2946 73.2034 83.253C73.1182 83.2115 73.0245 83.1899 72.9297 83.1899C72.8348 83.1899 72.7412 83.2115 72.6559 83.253C72.5707 83.2946 72.496 83.355 72.4375 83.4297L64.6406 93.3672C64.5685 93.4593 64.5237 93.5699 64.5115 93.6862C64.4992 93.8026 64.5199 93.92 64.5713 94.0251C64.6226 94.1303 64.7025 94.2188 64.8018 94.2807C64.9011 94.3426 65.0158 94.3753 65.1328 94.375H93.875C94.3984 94.375 94.6875 93.7734 94.3672 93.3672L83.7031 79.7734C83.6439 79.6986 83.5685 79.6382 83.4826 79.5966C83.3967 79.5551 83.3025 79.5335 83.207 79.5335C83.1116 79.5335 83.0174 79.5551 82.9315 79.5966C82.8456 79.6382 82.7702 79.6986 82.7109 79.7734ZM67.625 74.5312C67.625 75.3601 67.9542 76.1549 68.5403 76.741C69.1263 77.327 69.9212 77.6562 70.75 77.6562C71.5788 77.6562 72.3737 77.327 72.9597 76.741C73.5458 76.1549 73.875 75.3601 73.875 74.5312C73.875 73.7024 73.5458 72.9076 72.9597 72.3215C72.3737 71.7355 71.5788 71.4062 70.75 71.4062C69.9212 71.4062 69.1263 71.7355 68.5403 72.3215C67.9542 72.9076 67.625 73.7024 67.625 74.5312ZM106.266 62.5469L89.4531 45.7344C88.9844 45.2656 88.3516 45 87.6875 45H54.5C53.1172 45 52 46.1172 52 47.5V112.5C52 113.883 53.1172 115 54.5 115H104.5C105.883 115 107 113.883 107 112.5V64.3203C107 63.6562 106.734 63.0156 106.266 62.5469ZM101.234 65.4688H86.5312V50.7656L101.234 65.4688ZM101.375 109.375H57.625V50.625H81.2188V67.5C81.2188 68.3702 81.5645 69.2048 82.1798 69.8202C82.7952 70.4355 83.6298 70.7812 84.5 70.7812H101.375V109.375Z" fill="white"/>
</svg>
