<svg width="160" height="160" viewBox="0 0 160 160" fill="none" xmlns="http://www.w3.org/2000/svg">
<path d="M14.718 42.3094L80 4.6188L145.282 42.3094V117.691L80 155.381L14.718 117.691V42.3094Z" fill="#160F31" stroke="#B0105E" stroke-width="8"/>
<path d="M104.25 63.25L86.75 45.75C86.25 45.25 85.75 45 85 45H60C57.25 45 55 47.25 55 50V110C55 112.75 57.25 115 60 115H100C102.75 115 105 112.75 105 110V65C105 64.25 104.75 63.75 104.25 63.25ZM85 51L99 65H85V51ZM100 110H60V50H80V65C80 67.75 82.25 70 85 70H100V110Z" fill="white"/>
<path d="M65 95H95V100H65V95ZM65 80H95V85H65V80Z" fill="white"/>
</svg>
