<svg width="180" height="130" viewBox="0 0 180 130" fill="none" xmlns="http://www.w3.org/2000/svg">
<path d="M109.421 77.1644C107.666 76.6636 106.381 76.3722 104.283 76.3722C102.74 76.3722 100.9 76.8419 100.9 78.4262C100.9 81.3798 110.878 79.5069 110.878 86.1978C110.878 90.5207 106.296 92.2492 101.629 92.2492C99.4427 92.2492 97.217 91.9267 95.1188 91.4571L95.462 87.4963C97.2595 88.2517 99.1453 88.7213 101.113 88.7213C102.57 88.7213 104.884 88.2517 104.884 86.4552C104.884 82.8198 94.9064 85.3038 94.9064 78.6073C94.9064 74.6125 99.0603 72.8472 103.557 72.8472C106.257 72.8472 108.015 73.2093 109.81 73.5318L109.421 77.1644Z" fill="white"/>
<path d="M141.887 73.2998H136.145V91.839H141.887V73.2998Z" fill="white"/>
<path d="M177.782 77.1644C176.027 76.6636 174.743 76.3722 172.645 76.3722C171.099 76.3722 169.259 76.8419 169.259 78.4262C169.259 81.3798 179.237 79.5069 179.237 86.1978C179.237 90.5207 174.655 92.2492 169.988 92.2492C167.801 92.2492 165.576 91.9267 163.477 91.4571L163.82 87.4963C165.618 88.2517 167.504 88.7213 169.475 88.7213C170.932 88.7213 173.243 88.2517 173.243 86.4552C173.243 82.8198 163.262 85.3038 163.262 78.6073C163.262 74.6125 167.416 72.8472 171.916 72.8472C174.612 72.8472 176.367 73.2093 178.165 73.5318L177.782 77.1644Z" fill="white"/>
<path d="M124.935 81.6088L133.063 73.2997H126.298L119.444 80.7176H119.359V63.3242L113.617 64.8435V91.8389H119.359V82.8395H119.444L126.811 91.8389H134.092L124.935 81.6088Z" fill="white"/>
<path d="M145.587 64.8435V91.8389H151.326V63.3242L145.587 64.8435Z" fill="white"/>
<path d="M154.633 64.8435H154.63V91.8389H160.372V63.3242L154.633 64.8435Z" fill="white"/>
<path d="M142.332 66.3797C142.332 64.8491 140.897 63.6128 139.135 63.6128C137.37 63.6128 135.939 64.8491 135.939 66.3797C135.939 67.9074 137.37 69.1465 139.135 69.1465C140.897 69.1465 142.332 67.9074 142.332 66.3797Z" fill="white"/>
<path d="M42.6636 73.2515C35.1957 73.2515 32.5452 78.392 32.5452 82.7969C32.5452 87.2018 35.1957 92.3423 42.6636 92.3423C50.1348 92.3423 52.7821 87.199 52.7821 82.7969C52.7821 78.392 50.1348 73.2515 42.6636 73.2515ZM42.6636 90.526C38.2907 90.526 35.3526 87.4197 35.3526 82.7941C35.3526 78.1685 38.2907 75.0621 42.6636 75.0621C47.0365 75.0621 49.9747 78.1685 49.9747 82.7941C49.9779 87.4225 47.0365 90.526 42.6636 90.526Z" fill="white"/>
<path d="M57.6387 76.6012V73.6108H55.2594L55.2627 91.8388H57.8119V82.8337L57.8086 82.7178C57.8119 79.3596 58.9133 75.3451 64.1457 75.3451L64.9399 75.3762L64.9497 75.3055L65.0772 73.1808L64.7798 73.178C61.2435 73.178 58.8479 74.3351 57.6387 76.6012Z" fill="white"/>
<path d="M91.4583 64.3425L89.0137 64.9904V76.2587C88.4842 75.4892 86.4939 73.1297 82.0425 73.1778C74.6727 73.2599 73.1235 78.4117 73.1235 82.7261C73.1235 88.6135 76.5421 92.2715 82.0425 92.2715C85.3206 92.2715 87.5365 91.2276 89.0137 89.0124V91.8387H91.5629V64.3142L91.4583 64.3425ZM82.4707 90.4581C76.5683 90.4581 75.9277 85.0516 75.9277 82.7261C75.9277 80.4006 76.565 74.9941 82.4707 74.9941C86.9907 74.9941 89.0137 78.8757 89.0137 82.7261C89.0137 86.5737 86.9874 90.4581 82.4707 90.4581Z" fill="white"/>
<path d="M70.1789 64.3425L67.7343 64.9904V91.8387H70.2835V64.3142L70.1789 64.3425Z" fill="white"/>
<path d="M2.73551 73.6108H0L0.0326819 73.7014C0.163411 74.0437 6.89271 91.6295 6.95481 91.7907L6.97442 91.8388H10.1217C10.1217 91.8388 16.0405 76.058 16.0732 75.9618H16.266C16.302 76.058 22.2207 91.8388 22.2207 91.8388H25.3681L32.5124 73.6108H29.973C29.973 73.6108 23.9725 89.3916 23.9333 89.485H23.7372C23.7045 89.3888 17.9557 73.6108 17.9557 73.6108H14.8084C14.8084 73.6108 8.76214 89.3916 8.72619 89.485H8.5301C8.49742 89.3888 2.79107 73.6108 2.79107 73.6108H2.73551Z" fill="white"/>
<path d="M130.814 31.9575C130.814 31.9575 141.067 30.3874 144.42 23.3315C144.42 23.3315 204.105 33.9153 168.87 61.4737C168.87 61.4737 181.946 50.8164 174.642 42.2923C174.642 42.2923 178.717 52.876 162.755 60.0025C162.761 60.0025 197.375 38.7191 130.814 31.9575Z" fill="white"/>
<path d="M163.516 28.0989C167.69 29.8869 170.612 31.6409 172.321 32.7952C173.073 14.2984 157.751 3.95801 157.751 3.95801C157.303 5.14341 155.967 6.46743 154.058 7.07287C152.149 7.6783 151.002 9.66433 151.002 9.66433C158.49 15.051 162.085 21.6343 163.516 28.0989Z" fill="white"/>
<path d="M142.838 24.6416C143.744 23.4732 143.995 22.6697 143.995 22.6697C147.94 23.2751 151.479 24.0758 154.633 24.9726C148.094 8.8325 135.932 0 135.932 0C135.593 0.845906 132.027 2.38777 129.608 3.30724C127.19 4.2267 127.824 8.11956 127.824 8.11956C134.475 12.8753 139.315 18.6976 142.838 24.6416Z" fill="white"/>
<path d="M167.857 42.5217C167.033 50.4857 161.572 58.9391 161.572 58.9391C165.428 53.8608 168.066 49.0938 169.769 44.6492C169.291 43.8967 168.648 43.1894 167.857 42.5217Z" fill="white"/>
<path d="M167.141 41.9557C166.242 41.2881 165.2 40.66 164.049 40.0715C163.092 48.6409 159.791 55.08 159.791 55.08C161.699 53.2043 163.167 50.1743 163.167 50.1743C163.229 52.3244 161.193 56.5681 161.193 56.5681C164.693 51.6935 166.373 45.7694 167.141 41.9557Z" fill="white"/>
<path d="M146.427 58.6362C144.306 57.646 141.227 56.5936 134.903 52.3555C139.691 55.4732 147.682 57.4678 147.682 57.4678C130.037 49.7132 126.19 42.6856 126.19 42.6856C124.49 42.6375 123.467 43.5711 122.794 43.8908C122.121 44.2105 120.287 44.1822 120.287 44.1822C127.014 53.5692 146.427 58.6362 146.427 58.6362Z" fill="white"/>
<path d="M138.534 33.3694C132.671 32.5292 128.363 32.2038 128.363 32.2038C130.707 31.6946 132.7 31.075 134.406 30.4017C126.154 25.1989 117.934 23.9202 117.934 23.9202C117.934 23.9202 116.405 24.3615 116.192 26.5654C115.983 28.7693 114.029 29.0635 114.029 29.0635C144.845 36.1929 149.473 58.1666 149.473 58.1666C147.371 48.2449 142.913 41.9077 142.913 41.9077C147.626 46.0948 150.872 56.7351 150.872 56.7351C149.829 45.7355 144.561 38.3232 138.534 33.3694Z" fill="white"/>
<path d="M147.757 34.9595C152.195 46.8106 152.277 56.8427 152.277 56.8427C155.562 51.3316 154.695 38.6543 154.695 38.6543C157.751 43.8344 157.369 57.946 157.369 57.946C158.938 50.5309 158.996 43.7495 158.098 37.6471C154.846 36.5664 151.267 35.6809 147.757 34.9595Z" fill="white"/>
<path d="M0.0391846 96.0713H2.95445V119.411H14.7855V121.607H0.0391846V96.0713Z" fill="white"/>
<path d="M21.0214 118.497H21.0639L27.2768 102.949H30.0646L21.443 124.385C20.9625 125.726 20.3024 126.897 19.4559 127.896C19.0343 128.382 18.5277 128.761 17.9362 129.03C17.3446 129.322 16.6681 129.48 15.9066 129.506C14.9196 129.506 13.962 129.407 13.0338 129.211L13.2887 127.237C13.5436 127.31 13.8247 127.37 14.1352 127.42C14.4457 127.494 14.8248 127.531 15.2758 127.531C16.3739 127.505 17.2041 127.115 17.7695 126.36C18.3316 125.652 18.799 124.688 19.165 123.468L19.7141 121.822L12.0664 102.946H14.9817L21.0214 118.497Z" fill="white"/>
<path d="M30.2704 112.279C30.2704 109.62 31.0874 107.354 32.7216 105.475C34.3557 103.548 36.8918 102.561 40.33 102.513C43.8238 102.561 46.3861 103.548 48.0202 105.475C49.5987 107.354 50.3864 109.62 50.3864 112.279C50.3864 114.89 49.5987 117.145 48.0202 119.046C46.3861 120.998 43.8205 121.997 40.33 122.045C36.8918 121.997 34.3557 120.998 32.7216 119.046C31.0874 117.142 30.2704 114.887 30.2704 112.279ZM33.1857 112.279C33.1857 114.5 33.8066 116.328 35.0453 117.768C36.2284 119.281 37.99 120.048 40.3268 120.073C42.6635 120.051 44.4545 119.281 45.6932 117.768C46.8763 116.328 47.4679 114.5 47.4679 112.279C47.4679 110.061 46.8763 108.205 45.6932 106.72C44.4513 105.257 42.6635 104.513 40.3268 104.488C37.9867 104.513 36.2284 105.257 35.0453 106.72C33.8066 108.205 33.1857 110.058 33.1857 112.279Z" fill="white"/>
<path d="M53.2527 107.34C53.2527 105.9 53.1972 104.437 53.0828 102.949H55.6614V106.279H55.7464C56.0013 105.84 56.2954 105.402 56.6353 104.96C56.972 104.522 57.3968 104.12 57.9034 103.752C58.4394 103.362 59.0996 103.056 59.8905 102.838C60.6781 102.618 61.6227 102.51 62.7208 102.51C65.3681 102.536 67.2702 103.218 68.4271 104.559C69.5253 105.877 70.0743 107.583 70.0743 109.679V121.604H67.4107V110.265C67.4107 108.485 67.0316 107.071 66.2701 106.021C65.453 105.023 64.1294 104.51 62.2992 104.485C59.933 104.533 58.2695 105.266 57.3119 106.68C56.8053 107.34 56.4523 108.058 56.2562 108.839C56.0307 109.642 55.9163 110.46 55.9163 111.289V121.604H53.2527V107.34Z" fill="white"/>
<path d="M73.8818 119.411L80.6438 112.935C82.5034 111.204 84.1376 109.436 85.5462 107.631C86.9548 105.851 87.6869 104.179 87.7424 102.62C87.713 101.231 87.2195 100.12 86.2619 99.2906C85.3043 98.4617 84.0657 98.0345 82.5427 98.009C80.0065 98.0345 77.6403 98.6427 75.4441 99.8366L74.9375 97.5309C76.065 97.0443 77.2906 96.6284 78.6142 96.2861C79.9117 95.9692 81.1635 95.8108 82.376 95.8108C84.8566 95.8108 86.8829 96.3483 88.4614 97.4206C90.0661 98.5183 90.8832 100.213 90.9126 102.504C90.8571 104.431 89.9844 106.42 88.2915 108.468C86.628 110.542 84.7977 112.505 82.7976 114.358L77.4736 119.406H91.5891V121.601H73.8818V119.411Z" fill="white"/>
<path d="M103.727 95.8164C105.698 95.8419 107.319 96.2323 108.587 96.9877C109.855 97.7685 110.839 98.7926 111.545 100.06C112.842 102.742 113.46 105.67 113.405 108.839C113.405 110.18 113.306 111.594 113.11 113.082C112.885 114.596 112.434 116.008 111.757 117.326C111.11 118.642 110.136 119.717 108.842 120.546C107.545 121.4 105.842 121.839 103.727 121.861C101.672 121.836 100.008 121.397 98.74 120.546C97.4425 119.717 96.4587 118.645 95.7822 117.326C95.1351 116.008 94.6841 114.596 94.4292 113.082C94.1481 111.594 94.0206 110.18 94.05 108.839C93.9945 105.667 94.6252 102.742 95.9522 100.06C96.6548 98.7926 97.6549 97.7685 98.9524 96.9877C100.22 96.2323 101.812 95.8419 103.727 95.8164ZM103.727 98.0118C102.204 98.0373 101.008 98.3909 100.135 99.0727C99.2073 99.78 98.5144 100.694 98.0634 101.817C97.6124 102.94 97.315 104.109 97.1745 105.328C97.0339 106.595 96.962 107.767 96.962 108.839C96.962 109.914 97.0307 111.071 97.1745 112.313C97.315 113.532 97.6091 114.704 98.0634 115.824C98.5144 116.947 99.204 117.85 100.135 118.531C101.008 119.287 102.208 119.666 103.727 119.666C105.276 119.666 106.502 119.287 107.404 118.531C108.306 117.85 108.983 116.947 109.434 115.824C109.885 114.704 110.195 113.532 110.362 112.313C110.447 111.068 110.489 109.911 110.489 108.839C110.489 107.767 110.447 106.595 110.362 105.328C110.192 104.109 109.881 102.937 109.434 101.817C108.983 100.694 108.306 99.78 107.404 99.0727C106.502 98.3909 105.276 98.0344 103.727 98.0118Z" fill="white"/>
<path d="M114.444 119.411L121.206 112.935C123.065 111.204 124.7 109.436 126.108 107.631C127.517 105.851 128.249 104.179 128.304 102.62C128.275 101.231 127.782 100.12 126.824 99.2906C125.866 98.4617 124.628 98.0345 123.105 98.009C120.569 98.0345 118.202 98.6427 116.006 99.8366L115.499 97.5309C116.627 97.0443 117.853 96.6284 119.176 96.2861C120.474 95.9692 121.725 95.8108 122.938 95.8108C125.419 95.8108 127.445 96.3483 129.023 97.4206C130.628 98.5183 131.445 100.213 131.475 102.504C131.419 104.431 130.546 106.42 128.854 108.468C127.19 110.542 125.36 112.505 123.36 114.358L118.036 119.406H132.151V121.601H114.444V119.411Z" fill="white"/>
<path d="M135.511 113.193L148.836 95.9636H152.571V113.487H156.941V115.691H152.571V121.607H149.643V115.691H135.511V113.193ZM149.643 98.4985H149.558L138.184 113.487H149.643V98.4985Z" fill="white"/>
</svg>
