<svg width="526" height="160" viewBox="0 0 526 160" fill="none" xmlns="http://www.w3.org/2000/svg">
<path d="M176.16 64.28C174.293 64.28 172.613 63.96 171.12 63.32C169.627 62.6533 168.453 61.72 167.6 60.52C166.747 59.32 166.32 57.92 166.32 56.32H171.2C171.307 57.52 171.773 58.5067 172.6 59.28C173.453 60.0533 174.64 60.44 176.16 60.44C177.733 60.44 178.96 60.0667 179.84 59.32C180.72 58.5467 181.16 57.56 181.16 56.36C181.16 55.4267 180.88 54.6667 180.32 54.08C179.787 53.4933 179.107 53.04 178.28 52.72C177.48 52.4 176.36 52.0533 174.92 51.68C173.107 51.2 171.627 50.72 170.48 50.24C169.36 49.7333 168.4 48.96 167.6 47.92C166.8 46.88 166.4 45.4933 166.4 43.76C166.4 42.16 166.8 40.76 167.6 39.56C168.4 38.36 169.52 37.44 170.96 36.8C172.4 36.16 174.067 35.84 175.96 35.84C178.653 35.84 180.853 36.52 182.56 37.88C184.293 39.2133 185.253 41.0533 185.44 43.4H180.4C180.32 42.3867 179.84 41.52 178.96 40.8C178.08 40.08 176.92 39.72 175.48 39.72C174.173 39.72 173.107 40.0533 172.28 40.72C171.453 41.3867 171.04 42.3467 171.04 43.6C171.04 44.4533 171.293 45.16 171.8 45.72C172.333 46.2533 173 46.68 173.8 47C174.6 47.32 175.693 47.6667 177.08 48.04C178.92 48.5467 180.413 49.0533 181.56 49.56C182.733 50.0667 183.72 50.8533 184.52 51.92C185.347 52.96 185.76 54.36 185.76 56.12C185.76 57.5333 185.373 58.8667 184.6 60.12C183.853 61.3733 182.747 62.3867 181.28 63.16C179.84 63.9067 178.133 64.28 176.16 64.28ZM206.461 64L195.701 51.56V64H191.141V36.2H195.701V48.88L206.501 36.2H212.221L200.141 50.12L212.421 64H206.461ZM221.013 36.2V64H216.453V36.2H221.013ZM231.56 60.32H240.96V64H227V36.2H231.56V60.32ZM249.333 60.32H258.733V64H244.773V36.2H249.333V60.32ZM296.258 45.68L294.778 52.6H300.058V56.6H293.938L292.338 64H287.978L289.578 56.6H281.738L280.138 64H275.778L277.378 56.6H271.178V52.6H278.218L279.698 45.68H273.538V41.68H280.538L282.098 34.4H286.458L284.898 41.68H292.738L294.298 34.4H298.658L297.098 41.68H302.418V45.68H296.258ZM291.898 45.68H284.058L282.578 52.6H290.418L291.898 45.68ZM306.62 39V34.84H314.94V64H310.34V39H306.62ZM339.685 38.36L328.565 64H323.965L335.205 38.84H320.405V34.96H339.685V38.36Z" fill="white"/>
<path d="M199.008 94.728L192.42 120H184.968L180.936 103.368L176.76 120H169.308L162.9 94.728H169.488L173.124 113.124L177.624 94.728H184.392L188.712 113.124L192.384 94.728H199.008ZM208.251 99.66V104.772H216.495V109.524H208.251V115.068H217.575V120H202.095V94.728H217.575V99.66H208.251ZM236.872 107.04C238.336 107.352 239.512 108.084 240.4 109.236C241.288 110.364 241.732 111.66 241.732 113.124C241.732 115.236 240.988 116.916 239.5 118.164C238.036 119.388 235.984 120 233.344 120H221.572V94.728H232.948C235.516 94.728 237.52 95.316 238.96 96.492C240.424 97.668 241.156 99.264 241.156 101.28C241.156 102.768 240.76 104.004 239.968 104.988C239.2 105.972 238.168 106.656 236.872 107.04ZM227.728 104.952H231.76C232.768 104.952 233.536 104.736 234.064 104.304C234.616 103.848 234.892 103.188 234.892 102.324C234.892 101.46 234.616 100.8 234.064 100.344C233.536 99.888 232.768 99.66 231.76 99.66H227.728V104.952ZM232.264 115.032C233.296 115.032 234.088 114.804 234.64 114.348C235.216 113.868 235.504 113.184 235.504 112.296C235.504 111.408 235.204 110.712 234.604 110.208C234.028 109.704 233.224 109.452 232.192 109.452H227.728V115.032H232.264ZM271.111 94.728V99.66H264.415V120H258.259V99.66H251.563V94.728H271.111ZM280.357 99.66V104.772H288.601V109.524H280.357V115.068H289.681V120H274.201V94.728H289.681V99.66H280.357ZM292.633 107.328C292.633 104.832 293.173 102.612 294.253 100.668C295.333 98.7 296.833 97.176 298.753 96.096C300.697 94.992 302.893 94.44 305.341 94.44C308.341 94.44 310.909 95.232 313.045 96.816C315.181 98.4 316.609 100.56 317.329 103.296H310.561C310.057 102.24 309.337 101.436 308.401 100.884C307.489 100.332 306.445 100.056 305.269 100.056C303.373 100.056 301.837 100.716 300.661 102.036C299.485 103.356 298.897 105.12 298.897 107.328C298.897 109.536 299.485 111.3 300.661 112.62C301.837 113.94 303.373 114.6 305.269 114.6C306.445 114.6 307.489 114.324 308.401 113.772C309.337 113.22 310.057 112.416 310.561 111.36H317.329C316.609 114.096 315.181 116.256 313.045 117.84C310.909 119.4 308.341 120.18 305.341 120.18C302.893 120.18 300.697 119.64 298.753 118.56C296.833 117.456 295.333 115.932 294.253 113.988C293.173 112.044 292.633 109.824 292.633 107.328ZM342.987 94.728V120H336.831V109.596H327.255V120H321.099V94.728H327.255V104.628H336.831V94.728H342.987ZM370.039 120H363.883L353.587 104.412V120H347.431V94.728H353.587L363.883 110.388V94.728H370.039V120ZM386.454 120.252C384.078 120.252 381.894 119.7 379.902 118.596C377.934 117.492 376.362 115.956 375.186 113.988C374.034 111.996 373.458 109.764 373.458 107.292C373.458 104.82 374.034 102.6 375.186 100.632C376.362 98.664 377.934 97.128 379.902 96.024C381.894 94.92 384.078 94.368 386.454 94.368C388.83 94.368 391.002 94.92 392.97 96.024C394.962 97.128 396.522 98.664 397.65 100.632C398.802 102.6 399.378 104.82 399.378 107.292C399.378 109.764 398.802 111.996 397.65 113.988C396.498 115.956 394.938 117.492 392.97 118.596C391.002 119.7 388.83 120.252 386.454 120.252ZM386.454 114.636C388.47 114.636 390.078 113.964 391.278 112.62C392.502 111.276 393.114 109.5 393.114 107.292C393.114 105.06 392.502 103.284 391.278 101.964C390.078 100.62 388.47 99.948 386.454 99.948C384.414 99.948 382.782 100.608 381.558 101.928C380.358 103.248 379.758 105.036 379.758 107.292C379.758 109.524 380.358 111.312 381.558 112.656C382.782 113.976 384.414 114.636 386.454 114.636ZM408.958 115.248H417.022V120H402.802V94.728H408.958V115.248ZM431.911 120.252C429.535 120.252 427.351 119.7 425.359 118.596C423.391 117.492 421.819 115.956 420.643 113.988C419.491 111.996 418.915 109.764 418.915 107.292C418.915 104.82 419.491 102.6 420.643 100.632C421.819 98.664 423.391 97.128 425.359 96.024C427.351 94.92 429.535 94.368 431.911 94.368C434.287 94.368 436.459 94.92 438.427 96.024C440.419 97.128 441.979 98.664 443.107 100.632C444.259 102.6 444.835 104.82 444.835 107.292C444.835 109.764 444.259 111.996 443.107 113.988C441.955 115.956 440.395 117.492 438.427 118.596C436.459 119.7 434.287 120.252 431.911 120.252ZM431.911 114.636C433.927 114.636 435.535 113.964 436.735 112.62C437.959 111.276 438.571 109.5 438.571 107.292C438.571 105.06 437.959 103.284 436.735 101.964C435.535 100.62 433.927 99.948 431.911 99.948C429.871 99.948 428.239 100.608 427.015 101.928C425.815 103.248 425.215 105.036 425.215 107.292C425.215 109.524 425.815 111.312 427.015 112.656C428.239 113.976 429.871 114.636 431.911 114.636ZM465.035 102.72C464.579 101.88 463.919 101.244 463.055 100.812C462.215 100.356 461.219 100.128 460.067 100.128C458.075 100.128 456.479 100.788 455.279 102.108C454.079 103.404 453.479 105.144 453.479 107.328C453.479 109.656 454.103 111.48 455.351 112.8C456.623 114.096 458.363 114.744 460.571 114.744C462.083 114.744 463.355 114.36 464.387 113.592C465.443 112.824 466.211 111.72 466.691 110.28H458.879V105.744H472.271V111.468C471.815 113.004 471.035 114.432 469.931 115.752C468.851 117.072 467.471 118.14 465.791 118.956C464.111 119.772 462.215 120.18 460.103 120.18C457.607 120.18 455.375 119.64 453.407 118.56C451.463 117.456 449.939 115.932 448.835 113.988C447.755 112.044 447.215 109.824 447.215 107.328C447.215 104.832 447.755 102.612 448.835 100.668C449.939 98.7 451.463 97.176 453.407 96.096C455.351 94.992 457.571 94.44 460.067 94.44C463.091 94.44 465.635 95.172 467.699 96.636C469.787 98.1 471.167 100.128 471.839 102.72H465.035ZM481.837 94.728V120H475.681V94.728H481.837ZM492.454 99.66V104.772H500.698V109.524H492.454V115.068H501.778V120H486.298V94.728H501.778V99.66H492.454ZM514.919 120.252C513.071 120.252 511.415 119.952 509.951 119.352C508.487 118.752 507.311 117.864 506.423 116.688C505.559 115.512 505.103 114.096 505.055 112.44H511.607C511.703 113.376 512.027 114.096 512.579 114.6C513.131 115.08 513.851 115.32 514.739 115.32C515.651 115.32 516.371 115.116 516.899 114.708C517.427 114.276 517.691 113.688 517.691 112.944C517.691 112.32 517.475 111.804 517.043 111.396C516.635 110.988 516.119 110.652 515.495 110.388C514.895 110.124 514.031 109.824 512.903 109.488C511.271 108.984 509.939 108.48 508.907 107.976C507.875 107.472 506.987 106.728 506.243 105.744C505.499 104.76 505.127 103.476 505.127 101.892C505.127 99.54 505.979 97.704 507.683 96.384C509.387 95.04 511.607 94.368 514.343 94.368C517.127 94.368 519.371 95.04 521.075 96.384C522.779 97.704 523.691 99.552 523.811 101.928H517.151C517.103 101.112 516.803 100.476 516.251 100.02C515.699 99.54 514.991 99.3 514.127 99.3C513.383 99.3 512.783 99.504 512.327 99.912C511.871 100.296 511.643 100.86 511.643 101.604C511.643 102.42 512.027 103.056 512.795 103.512C513.563 103.968 514.763 104.46 516.395 104.988C518.027 105.54 519.347 106.068 520.355 106.572C521.387 107.076 522.275 107.808 523.019 108.768C523.763 109.728 524.135 110.964 524.135 112.476C524.135 113.916 523.763 115.224 523.019 116.4C522.299 117.576 521.243 118.512 519.851 119.208C518.459 119.904 516.815 120.252 514.919 120.252Z" fill="#B0105E"/>
<path d="M14.718 42.3094L80 4.6188L145.282 42.3094V117.691L80 155.381L14.718 117.691V42.3094Z" fill="#160F31" stroke="#B0105E" stroke-width="8"/>
<path d="M98.1667 88.3333C98.5 85.5833 98.75 82.8333 98.75 79.9999C98.75 77.1666 98.5 74.4166 98.1667 71.6666H112.25C112.917 74.3333 113.333 77.1249 113.333 79.9999C113.333 82.8749 112.917 85.6666 112.25 88.3333M90.7917 111.5C93.2917 106.875 95.2084 101.875 96.5417 96.6666H108.833C104.797 103.618 98.3922 108.883 90.7917 111.5ZM89.75 88.3333H70.25C69.8334 85.5833 69.5834 82.8333 69.5834 79.9999C69.5834 77.1666 69.8334 74.3749 70.25 71.6666H89.75C90.125 74.3749 90.4167 77.1666 90.4167 79.9999C90.4167 82.8333 90.125 85.5833 89.75 88.3333ZM80 113.167C76.5417 108.167 73.75 102.625 72.0417 96.6666H87.9584C86.25 102.625 83.4584 108.167 80 113.167ZM63.3334 63.3333H51.1667C55.161 56.3626 61.5611 51.0884 69.1667 48.4999C66.6667 53.1249 64.7917 58.1249 63.3334 63.3333ZM51.1667 96.6666H63.3334C64.7917 101.875 66.6667 106.875 69.1667 111.5C61.5762 108.885 55.1846 103.617 51.1667 96.6666ZM47.75 88.3333C47.0834 85.6666 46.6667 82.8749 46.6667 79.9999C46.6667 77.1249 47.0834 74.3333 47.75 71.6666H61.8334C61.5 74.4166 61.25 77.1666 61.25 79.9999C61.25 82.8333 61.5 85.5833 61.8334 88.3333M80 46.7916C83.4584 51.7916 86.25 57.3749 87.9584 63.3333H72.0417C73.75 57.3749 76.5417 51.7916 80 46.7916ZM108.833 63.3333H96.5417C95.2356 58.1733 93.3047 53.192 90.7917 48.4999C98.4584 51.1249 104.833 56.4166 108.833 63.3333ZM80 38.3333C56.9584 38.3333 38.3334 57.0833 38.3334 79.9999C38.3334 91.0506 42.7232 101.649 50.5373 109.463C54.4064 113.332 58.9997 116.401 64.0549 118.495C69.1101 120.589 74.5283 121.667 80 121.667C91.0507 121.667 101.649 117.277 109.463 109.463C117.277 101.649 121.667 91.0506 121.667 79.9999C121.667 74.5282 120.589 69.11 118.495 64.0548C116.401 58.9995 113.332 54.4062 109.463 50.5371C105.594 46.668 101 43.5989 95.9452 41.5049C90.89 39.411 85.4718 38.3333 80 38.3333Z" fill="white"/>
</svg>
